# AST/ASF file generated using VICON BodyLanguage
# -----------------------------------------------
:version 1.10
:name VICON
:units
  mass 1.0
  length 0.45
  angle deg
:documentation
   .ast/.asf automatically generated from VICON data using
   VICON BodyBuilder and BodyLanguage model FoxedUp or BRILLIANT.MOD
:root
   order TX TY TZ RX RY RZ
   axis XYZ
   position 0 0 0  
   orientation 0 -0 0 
:bonedata
  begin
     id 1 
     name lhipjoint
     direction 0.432694 -0.693742 0.575759 
     length 2.19277 
     axis 0 -0 0  XYZ
  end
  begin
     id 2 
     name lfemur
     direction 0.34202 -0.939693 0  
     length 6.69022  
     axis 0 -0 20  XYZ
    dof rx ry rz
    limits (-160.0 20.0)
           (-70.0 70.0)
           (-60.0 70.0)
  end
  begin
     id 3 
     name ltibia
     direction 0.34202 -0.939693 0   
     length 6.50337   
     axis 0 -0 20   XYZ
    dof rx
    limits (-10.0 170.0)
  end
  begin
     id 4 
     name lfoot
     direction 0.158999 -0.435969 0.885805   
     length 2.70564   
     axis -90 -1.13533e-015 20   XYZ
    dof rx rz
    limits (-45.0 90.0)
           (-70.0 20.0)
  end
  begin
     id 5 
     name ltoes
     direction -0.00592919 0.00964381 0.999936   
     length 1.29929   
     axis -90 -1.13533e-015 20   XYZ
    dof rx
    limits (-90.0 20.0)
  end
  begin
     id 6 
     name rhipjoint
     direction -0.414359 -0.700339 0.581234   
     length 2.17212  
     axis 0 -0 0  XYZ 
  end
  begin
     id 7 
     name rfemur
     direction -0.34202 -0.939693 0   
     length 7.17659   
     axis 0 -0 -20   XYZ
    dof rx ry rz
    limits (-160.0 20.0)
           (-70.0 70.0)
           (-70.0 60.0)
  end
  begin
     id 8 
     name rtibia
     direction -0.34202 -0.939693 0   
     length 6.36669   
     axis 0 -0 -20   XYZ
    dof rx
    limits (-10.0 170.0)
 end
 begin
     id 9 
     name rfoot
     direction -0.137064 -0.37658 0.916188   
     length 2.22351  
     axis -90 1.13533e-015 -20   XYZ
    dof rx rz
    limits (-45.0 90.0)
           (-20.0 70.0)
  end
  begin
     id 10 
     name rtoes
     direction -0.000784077 -0.00289101 0.999996   
     length 1.09522   
     axis -90 1.13533e-015 -20   XYZ
    dof rx
    limits (-90.0 20.0)
  end
  begin
     id 11 
     name lowerback
     direction -0.0176242 0.984912 -0.172157   
     length 1.65301   
     axis 0 -0 0   XYZ
    dof rx ry rz
    limits (-20.0 45.0)
           (-30.0 30.0)
           (-30.0 30.0)
  end
  begin
     id 12 
     name upperback
     direction -0.00218128 0.998776 -0.0494072   
     length 1.67776   
     axis 0 -0 0   XYZ
    dof rx ry rz
    limits (-20.0 45.0)
           (-30.0 30.0)
           (-30.0 30.0)
  end
  begin
     id 13 
     name thorax
     direction 0.00544186 0.999658 0.0255711   
     length 1.72293   
     axis 0 -0 0   XYZ
    dof rx ry rz
    limits (-20.0 45.0)
           (-30.0 30.0)
           (-30.0 30.0)
  end
  begin
     id 14 
     name lowerneck
     direction -0.105325 0.983841 0.144785   
     length 2.14226   
     axis 0 -0 0   XYZ
    dof rx ry rz
    limits (-20.0 45.0)
           (-30.0 30.0)
           (-30.0 30.0)
  end
  begin
     id 15 
     name upperneck
     direction 0.0547957 0.988053 -0.144041   
     length 2.17508   
     axis 0 -0 0   XYZ
    dof rx ry rz
    limits (-20.0 45.0)
           (-30.0 30.0)
           (-30.0 30.0)
  end
  begin
     id 16
     name head
     direction 0.0247488 0.997534 -0.0656813  
     length 2.20048  
     axis 0 -0 0   XYZ
    dof rx ry rz
    limits (-20.0 45.0)
           (-30.0 30.0)
           (-30.0 30.0)
  end
  begin
     id 17 
     name lclavicle
     direction 0.820559 0.567247 -0.0701026  
     length 4.09615  
     axis 0 -0 0   XYZ
    dof ry rz
    limits (-20.0 10.0)
           (0.0 20.0)
  end
  begin
     id 18 
     name lhumerus
     direction 0.999977 -0.0067566 -9.96392e-005   
     length 4.59333   
     axis -180 -30 -90   XYZ
    dof rx ry rz
    limits (-60.0 90.0)
           (-90.0 90.0)
           (-90.0 90.0)
  end
  begin
     id 19
     name lradius
     direction 1 -4.48982e-011 -2.53425e-027   
     length 2.81151   
     axis -180 -30 -90   XYZ
    dof rx
    limits (-10.0 170.0)
  end
  begin
     id 20
     name lwrist
     direction 1 -4.48939e-011 -7.39254e-028   
     length 1.40576   
     axis 2.56395e-016 90 90   XYZ
    dof ry
    limits (-180.0 0.0)
 end
  begin
     id 21 
     name lhand
     direction 1 -4.48939e-011 -1.47851e-027   
     length 0.895651   
     axis 9.43423e-016 90 90   XYZ
    dof rx rz
    limits (-90.0 90.0)
           (-45.0 45.0)
  end
  begin
     id 22 
     name lfingers
     direction 1 -4.48978e-011 -2.95702e-027   
     length 0.722097   
     axis 1.88685e-015 90 90   XYZ
    dof rx
    limits (0.0 90.0)
  end
  begin
     id 23
     name lthumb
     direction 0.707107 -6.34931e-011 0.707107   
     length 1.03679   
     axis -90 45 -9.86935e-015   XYZ
    dof rx rz
    limits (-45.0 45.0)
           (-45.0 45.0)
  end
  begin
     id 24 
     name rclavicle
     direction -0.831414 0.553102 -0.0531864   
     length 4.24872  
     axis 0 -0 0   XYZ 
    dof ry rz
    limits (-10.0 20.0)
           (-20.0 0.0)
  end
  begin
     id 25 
     name rhumerus
     direction -0.999916 -0.000939607 0.0129331  
     length 4.74834   
     axis -180 30 90   XYZ
    dof rx ry rz
    limits (-90.0 60.0)
           (-90.0 90.0)
           (-90.0 90.0)
  end
  begin
     id 26 
     name rradius
     direction -1 -4.48956e-011 -1.31752e-027   
     length 2.79907   
     axis -180 30 90   XYZ
    dof rx
    limits (-10.0 170.0)
  end
  begin
     id 27 
     name rwrist
     direction -1 -4.4897e-011 -7.39254e-028   
     length 1.39954   
     axis 2.56395e-016 -90 -90   XYZ
    dof ry
    limits (-180.0 0.0)
  end
  begin
     id 28
     name rhand
     direction -0.999997 -0.00250697 0.000800838   
     length 0.953304   
     axis 9.43423e-016 -90 -90   XYZ
    dof rx rz
    limits (-90.0 90.0)
           (-45.0 45.0)
  end
  begin
     id 29
     name rfingers
     direction -1 -4.48954e-011 -2.95702e-027   
     length 0.763342   
     axis 1.88685e-015 -90 -90   XYZ
    dof rx
    limits (0.0 90.0)
  end
  begin
     id 30
     name rthumb
     direction -0.709701 -0.00217037 0.7045   
     length 1.10115   
     axis -90 -45 9.86935e-015   XYZ
    dof rx rz
    limits (-45.0 45.0)
           (-45.0 45.0)
  end
:hierarchy
  begin
    root lhipjoint rhipjoint lowerback
    lhipjoint lfemur
    lfemur ltibia
    ltibia lfoot
    lfoot ltoes
    rhipjoint rfemur
    rfemur rtibia
    rtibia rfoot
    rfoot rtoes
    lowerback upperback
    upperback thorax
    thorax lowerneck lclavicle rclavicle
    lowerneck upperneck
    upperneck head
    lclavicle lhumerus
    lhumerus lradius
    lradius lwrist
    lwrist lhand lthumb
    lhand lfingers
    rclavicle rhumerus
    rhumerus rradius
    rradius rwrist
    rwrist rhand rthumb
    rhand rfingers
  end

#!OML:ASF G:\ViconDB\ViconDB\414\test\team2\shane.ASF
:FULLY-SPECIFIED
:DEGREES
110
root 5.39085 16.1943 -19.2564 -6.70608 2.38485 -3.25056
lowerback 6.24805 -5.51739 -1.93773
upperback 3.10226 -7.45597 5.87253
thorax 0.783734 -3.8595 7.56526
lowerneck -15.724 -1.2734 -7.43821
upperneck 22.4863 -1.27994 5.73931
head 9.80658 -0.585008 3.09675
rclavicle 4.33351e-014 6.36111e-015
rhumerus -53.5348 -1.97592 -70.2256
rradius 27.966
rwrist 38.287
rhand -28.6814 -13.6989
rfingers 7.12502
rthumb -2.04405 -43.6689
lclavicle 4.33351e-014 6.36111e-015
lhumerus -12.5385 -25.6504 92.563
lradius 42.418
lwrist -15.9564
lhand -43.1521 6.35294
lfingers 7.12502
lthumb -16.0048 35.7118
rfemur -28.7707 -12.6849 19.1304
rtibia 43.2599
rfoot -4.15035 5.3083
rtoes -14.8018
lfemur 35.5514 -1.01282 -12.0364
ltibia 1.59028e-014
lfoot -24.0317 -15.2068
ltoes -17.866
111
root 5.34959 16.1084 -19.077 -6.39859 2.65908 -3.37659
lowerback 6.0044 -5.62496 -2.01164
upperback 2.91911 -7.60183 6.05802
thorax 0.786143 -3.934 7.79062
lowerneck -15.4899 -1.19083 -7.2412
upperneck 22.2874 -1.17201 5.51615
head 9.68175 -0.544171 2.99271
rclavicle -7.13637e-014 2.38542e-014
rhumerus -53.5316 -2.27139 -69.8014
rradius 27.6433
rwrist 38.8137
rhand -28.3351 -13.3362
rfingers 7.12502
rthumb -1.70954 -43.3091
lclavicle -7.13637e-014 2.38542e-014
lhumerus -12.6536 -25.375 92.5486
lradius 42.661
lwrist -16.4405
lhand -43.2163 6.12088
lfingers 7.12502
lthumb -16.0666 35.4748
rfemur -29.0491 -12.7707 19.4004
rtibia 44.9159
rfoot -6.35204 3.76714
rtoes -12.7012
lfemur 35.9264 -1.44926 -11.8461
ltibia -7.31528e-014
lfoot -24.7984 -14.8987
ltoes -18.1617
112
root 5.30165 16.0374 -18.893 -6.164 3.01645 -3.57602
lowerback 5.76302 -5.72928 -2.1907
upperback 2.82176 -7.75381 6.31115
thorax 0.904069 -4.02055 8.14152
lowerneck -15.3931 -1.15515 -7.11709
upperneck 22.0909 -1.12159 5.37952
head 9.58945 -0.524518 2.92541
rclavicle 5.04913e-014 -2.06736e-014
rhumerus -53.271 -3.64854 -68.6094
rradius 27.0656
rwrist 40.1742
rhand -28.4645 -12.9898
rfingers 7.12502
rthumb -1.83454 -42.9617
lclavicle 5.04913e-014 -2.06736e-014
lhumerus -12.659 -25.1831 92.5886
lradius 42.8032
lwrist -16.6289
lhand -43.432 5.75951
lfingers 7.12502
lthumb -16.2743 35.0965
rfemur -29.3125 -13.1356 19.8227
rtibia 46.4449
rfoot -8.6115 3.61467
rtoes -11.8137
lfemur 36.3245 -2.00204 -11.5546
ltibia 1.62208e-013
lfoot -25.2087 -14.7392
ltoes -18.5245
113
root 5.25482 15.9814 -18.706 -5.80915 3.44421 -3.87688
lowerback 5.34042 -5.82291 -2.13757
upperback 2.70443 -7.88005 6.52996
thorax 1.06183 -4.08913 8.30384
lowerneck -15.3526 -1.20049 -6.98328
upperneck 21.9975 -1.21111 5.34341
head 9.55433 -0.558271 2.8768
rclavicle -1.69961e-014 4.77083e-015
rhumerus -53.0408 -4.94759 -67.7125
rradius 26.4776
rwrist 41.6002
rhand -28.3874 -13.0296
rfingers 7.12502
rthumb -1.76005 -43.0021
lclavicle -1.69961e-014 4.77083e-015
lhumerus -12.8355 -25.1639 92.712
lradius 42.8947
lwrist -16.717
lhand -43.5544 5.82787
lfingers 7.12502
lthumb -16.3922 35.1552
rfemur -29.6323 -13.4342 20.367
rtibia 47.756
rfoot -10.5205 3.37391
rtoes -10.2867
lfemur 36.5434 -2.59751 -11.188
ltibia -1.145e-013
lfoot -25.3956 -14.4767
ltoes -19.0888
114
root 5.21267 15.9262 -18.5156 -5.54788 3.78689 -4.05913
lowerback 5.12884 -5.9169 -2.07064
upperback 2.51664 -7.99872 6.66165
thorax 1.01308 -4.14423 8.3948
lowerneck -15.2528 -1.15771 -6.71894
upperneck 21.9837 -1.19427 5.21104
head 9.52708 -0.544119 2.78707
rclavicle 1.24439e-013 -2.22639e-014
rhumerus -52.8646 -6.36035 -66.655
rradius 25.7506
rwrist 43.4541
rhand -28.377 -12.9412
rfingers 7.12502
rthumb -1.75001 -42.9138
lclavicle 1.24439e-013 -2.22639e-014
lhumerus -13.302 -24.755 92.9874
lradius 42.9104
lwrist -17.0123
lhand -43.7722 6.01557
lfingers 7.12502
lthumb -16.6019 35.3255
rfemur -29.7012 -13.8979 20.7397
rtibia 48.9044
rfoot -12.6729 3.13524
rtoes -8.01572
lfemur 36.9332 -3.11022 -10.9333
ltibia 8.26944e-014
lfoot -25.3304 -14.3144
ltoes -19.8823
115
root 5.16928 15.8783 -18.3217 -5.26904 4.23027 -4.46566
lowerback 4.63275 -6.0693 -1.88422
upperback 2.48425 -8.20619 6.91629
thorax 1.30199 -4.25795 8.50407
lowerneck -15.2764 -1.16109 -6.55173
upperneck 21.8109 -1.19725 5.05622
head 9.46961 -0.546732 2.7011
rclavicle 2.34566e-014 4.13472e-014
rhumerus -52.2895 -8.23507 -65.3305
rradius 24.8391
rwrist 45.3175
rhand -28.3702 -12.6139
rfingers 7.12502
rthumb -1.74345 -42.5865
lclavicle 2.34566e-014 4.13472e-014
lhumerus -13.5915 -24.3437 93.2888
lradius 42.7662
lwrist -17.121
lhand -43.9836 5.95613
lfingers 7.12502
lthumb -16.8054 35.2489
rfemur -29.7146 -14.7103 21.46
rtibia 49.8597
rfoot -14.8646 2.98845
rtoes -7.15114
lfemur 37.2486 -3.71832 -10.4881
ltibia 4.77083e-014
lfoot -25.1899 -13.848
ltoes -21.5946
